<svg width="220" height="130" viewBox="0 0 220 130" fill="none" xmlns="http://www.w3.org/2000/svg">
<rect width="220" height="130" fill="white"/>
<path fill-rule="evenodd" clip-rule="evenodd" d="M121.386 39.1927C119.198 37.8065 116.611 36.9917 113.828 36.9917H92.5879V48.3198H108.164C114.209 48.3198 119.355 44.5245 121.386 39.1927" fill="#343741"/>
<path fill-rule="evenodd" clip-rule="evenodd" d="M124.713 42.0986C121.746 48.2561 115.443 52.5163 108.164 52.5163H92.5879V65.3128H113.828C121.649 65.3128 127.988 58.9725 127.988 51.1527C127.988 47.7081 126.757 44.5531 124.713 42.0986" fill="#00BFB3"/>
<path fill-rule="evenodd" clip-rule="evenodd" d="M121.386 39.1931C121.983 37.6273 122.324 35.9357 122.324 34.1601C122.324 26.3404 115.985 20 108.164 20H92.5879V36.9921H113.828C116.611 36.9921 119.198 37.8069 121.386 39.1931" fill="#0077CC"/>
<path fill-rule="evenodd" clip-rule="evenodd" d="M86.305 97.6687C90.5843 97.6687 92.6859 95.8203 92.6859 92.6903C92.6859 90.7926 91.5212 89.0674 88.9384 88.7963C90.9894 88.4759 92.0529 86.8247 92.0529 85.0256C92.0529 82.216 89.9766 80.4169 86.1024 80.4169H80V97.6687H86.305ZM86.253 87.4903H83.3411V83.4238H85.8226C87.8483 83.4238 88.5826 84.3603 88.5826 85.4447C88.5826 86.6277 87.8483 87.4903 86.253 87.4903ZM83.3411 94.6865H86.3037C88.2534 94.6865 89.2409 93.7992 89.2409 92.4684C89.2409 91.1129 88.3547 90.2749 86.253 90.2749H83.3411V94.6865ZM100.992 98.0385C103.473 98.0385 105.271 96.9294 106.284 94.7606L103.625 94.0213C103.119 94.9578 102.207 95.5 101.017 95.5C99.346 95.5 98.1306 94.3663 97.8268 92.6658H106.765V91.9264C106.74 87.8846 104.106 85.5432 100.688 85.5432C97.1431 85.5432 94.5857 88.2542 94.5857 91.8278C94.5857 95.4261 97.2444 98.0385 100.992 98.0385ZM97.8498 90.5464H103.446C103.345 88.7719 102.154 87.934 100.736 87.934C99.2425 87.934 98.179 88.7966 97.8498 90.5464ZM112.713 98.0138C114.157 98.0138 115.6 97.3977 116.182 96.5105H116.284V97.6688H119.297V90.2259C119.297 87.2191 117.499 85.5432 114.283 85.5432C111.523 85.5432 109.548 86.7755 108.839 88.9197L112.03 89.1661C112.308 88.5253 112.992 88.0078 114.081 88.0078C115.372 88.0078 116.132 88.7472 116.132 90.0287V90.8913C115.726 90.6695 114.688 90.4477 113.65 90.4477C110.434 90.4477 108.485 91.9018 108.485 94.3417C108.485 96.4858 110.232 98.0138 112.713 98.0138ZM111.701 94.095C111.701 95.0068 112.41 95.5983 113.626 95.5983C114.993 95.5983 116.183 94.785 116.183 93.8731V93.1091C115.829 92.8134 114.942 92.5916 114.005 92.5916C112.537 92.5916 111.701 93.1831 111.701 94.095ZM127.198 97.9152C128.11 97.9152 128.844 97.7673 129.275 97.5948L128.946 95.1303C128.667 95.2535 128.312 95.3521 127.831 95.3521C126.641 95.3521 126.034 94.8592 126.034 93.2818V88.5499H129.148V85.9129H126.034V82.1914L122.843 82.8075V85.9129H120.767V88.5499H122.843V93.7748C122.843 96.8801 124.666 97.9152 127.198 97.9152ZM140.415 94.0952C140.415 96.4858 138.415 98.0385 135.452 98.0385C132.844 98.0385 130.945 96.8555 130.287 94.7853L133.224 94.2431C133.477 95.155 134.414 95.7465 135.528 95.7465C136.617 95.7465 137.25 95.1796 137.25 94.317C137.25 93.3779 136.166 93.1628 134.886 92.909C133.043 92.5432 130.793 92.097 130.793 89.2893C130.793 87.0466 132.667 85.5432 135.427 85.5432C137.908 85.5432 139.833 86.7509 140.339 88.55L137.377 89.1661C137.225 88.4021 136.465 87.8846 135.503 87.8846C134.515 87.8846 133.958 88.4021 133.958 89.0675C133.958 90.0212 135.053 90.2398 136.34 90.4971C138.18 90.8647 140.415 91.3112 140.415 94.0952Z" fill="#343741"/>
</svg>
