<svg width="220" height="130" viewBox="0 0 220 130" fill="none" xmlns="http://www.w3.org/2000/svg">
<rect width="220" height="130" fill="white"/>
<path fill-rule="evenodd" clip-rule="evenodd" d="M92.2988 36.9917V60.7647L109.196 41.3064C104.172 38.5692 98.4235 36.9917 92.2988 36.9917" fill="#343741"/>
<path fill-rule="evenodd" clip-rule="evenodd" d="M92.2998 20V36.9921C98.4245 36.9921 104.172 38.5697 109.197 41.3069L127.701 20H92.2998Z" fill="#F04E98"/>
<path fill-rule="evenodd" clip-rule="evenodd" d="M112.81 43.5444L95.4671 63.5163L93.9072 65.312H126.989C125.174 56.3687 119.984 48.6547 112.81 43.5444" fill="#00BFB3"/>
<path fill-rule="evenodd" clip-rule="evenodd" d="M92.3186 80.4164V83.3985H89.141V80.4164H92.3186ZM76.329 89.5354V97.6684H73V80.4166H76.329V88.1552L83.0625 80.4166H87.022L79.8092 88.5496L87.5264 97.6684H83.113L76.329 89.5354ZM92.3186 97.668V85.9122H89.141V97.668H92.3186ZM107.65 91.8026C107.65 95.524 105.255 98.0379 102.077 98.0379C100.639 98.0379 99.0002 97.471 98.2436 96.0416H98.1679V97.6682H95.2425V80.4164H98.4201V87.4157C98.975 86.3806 100.236 85.5426 101.976 85.5426C105.154 85.5426 107.65 88.0318 107.65 91.8026ZM101.37 95.327C99.4534 95.327 98.2933 93.8482 98.2933 91.8027C98.2933 89.7325 99.4534 88.2784 101.37 88.2784C103.287 88.2784 104.447 89.7818 104.447 91.8027C104.447 93.7743 103.287 95.327 101.37 95.327ZM117.059 96.51C116.479 97.3972 115.041 98.0133 113.604 98.0133C111.132 98.0133 109.392 96.4853 109.392 94.3412C109.392 91.9013 111.334 90.4472 114.537 90.4472C115.571 90.4472 116.605 90.669 117.008 90.8908V90.0282C117.008 88.7467 116.252 88.0073 114.966 88.0073C113.881 88.0073 113.2 88.5248 112.923 89.1656L109.745 88.9192C110.451 86.775 112.418 85.5427 115.167 85.5427C118.37 85.5427 120.161 87.2186 120.161 90.2254V97.6683H117.16V96.51H117.059ZM114.51 95.5978C113.299 95.5978 112.593 95.0063 112.593 94.0945C112.593 93.1826 113.426 92.5911 114.888 92.5911C115.821 92.5911 116.704 92.8129 117.057 93.1086V93.8726C117.057 94.7845 115.872 95.5978 114.51 95.5978ZM126.036 90.9154V97.6683H122.858V85.9124H125.809V87.3912H125.86C126.54 86.3314 127.877 85.5427 129.542 85.5427C132.139 85.5427 133.753 87.2433 133.753 90.1514V97.6683H130.576V90.7183C130.576 89.0917 129.844 88.2784 128.558 88.2784C127.171 88.2784 126.036 89.3381 126.036 90.9154ZM140.285 98.0133C141.722 98.0133 143.16 97.3972 143.74 96.51H143.841V97.6683H146.842V90.2254C146.842 87.2186 145.051 85.5427 141.849 85.5427C139.1 85.5427 137.133 86.775 136.426 88.9192L139.604 89.1656C139.881 88.5248 140.562 88.0073 141.647 88.0073C142.933 88.0073 143.69 88.7467 143.69 90.0282V90.8908C143.286 90.669 142.252 90.4472 141.218 90.4472C138.015 90.4472 136.073 91.9013 136.073 94.3412C136.073 96.4853 137.813 98.0133 140.285 98.0133ZM139.277 94.0945C139.277 95.0063 139.983 95.5978 141.193 95.5978C142.555 95.5978 143.74 94.7845 143.74 93.8726V93.1086C143.387 92.8129 142.505 92.5911 141.572 92.5911C140.109 92.5911 139.277 93.1826 139.277 94.0945Z" fill="#343741"/>
</svg>
